<svg width="20" height="21" viewBox="0 0 20 21" fill="none" xmlns="http://www.w3.org/2000/svg">
<path d="M12.8125 6.49455C12.2777 6.49422 11.7453 6.56596 11.2297 6.70783C11.0262 6.37572 10.7789 6.07248 10.4945 5.80626L11.2375 4.74611C11.2846 4.67886 11.318 4.60299 11.3358 4.52284C11.3535 4.44268 11.3553 4.35981 11.3411 4.27896C11.3268 4.19811 11.2968 4.12086 11.2527 4.05161C11.2086 3.98237 11.1513 3.9225 11.084 3.8754C11.0167 3.82831 10.9409 3.79493 10.8607 3.77716C10.7806 3.75939 10.6977 3.75758 10.6169 3.77183C10.536 3.78609 10.4587 3.81613 10.3895 3.86024C10.3203 3.90435 10.2604 3.96167 10.2133 4.02892L9.47033 5.0883C8.85936 4.77981 8.18444 4.61924 7.50002 4.61955C7.4547 4.61955 7.40939 4.61955 7.36408 4.61955L7.1383 3.34689C7.12645 3.26396 7.09805 3.18427 7.05479 3.11253C7.01153 3.0408 6.95429 2.9785 6.88648 2.92932C6.81866 2.88015 6.74165 2.84511 6.66003 2.82629C6.5784 2.80746 6.49382 2.80524 6.41132 2.81975C6.32882 2.83426 6.25008 2.86521 6.17977 2.91075C6.10947 2.95629 6.04904 3.01551 6.00207 3.08487C5.9551 3.15423 5.92256 3.23232 5.90637 3.31451C5.89018 3.3967 5.89067 3.4813 5.90783 3.5633L6.13283 4.83986C5.43967 5.06912 4.81476 5.46791 4.31486 6.00001L3.2508 5.25548C3.1836 5.20723 3.10749 5.17281 3.02689 5.15419C2.94628 5.13558 2.86279 5.13316 2.78124 5.14706C2.69969 5.16096 2.62171 5.19092 2.55183 5.23518C2.48194 5.27945 2.42154 5.33715 2.37412 5.40494C2.32671 5.47273 2.29322 5.54926 2.27561 5.63008C2.25799 5.71091 2.2566 5.79443 2.27151 5.8758C2.28641 5.95717 2.31733 6.03478 2.36245 6.10411C2.40758 6.17344 2.46602 6.23313 2.53439 6.2797L3.59377 7.02345C3.28419 7.6343 3.12356 8.30973 3.12502 8.99455C3.12502 9.03908 3.12502 9.08439 3.12502 9.12892L1.85236 9.35392C1.69832 9.38091 1.55999 9.46466 1.46468 9.58865C1.36938 9.71264 1.32401 9.86786 1.33755 10.0237C1.35109 10.1795 1.42255 10.3245 1.53782 10.4302C1.65308 10.5359 1.80378 10.5945 1.96017 10.5945C1.99657 10.5945 2.0329 10.5914 2.06877 10.5852L3.34377 10.3602C3.45579 10.7012 3.60956 11.0272 3.80158 11.3305C3.20376 11.8858 2.787 12.6082 2.60556 13.4037C2.42413 14.1992 2.48644 15.0309 2.78437 15.7905C3.0823 16.55 3.60205 17.2023 4.27593 17.6623C4.94981 18.1223 5.7466 18.3688 6.56252 18.3695H12.8125C14.3872 18.3695 15.8975 17.744 17.011 16.6305C18.1245 15.517 18.75 14.0068 18.75 12.432C18.75 10.8573 18.1245 9.3471 17.011 8.2336C15.8975 7.1201 14.3872 6.49455 12.8125 6.49455ZM4.37502 8.99455C4.37539 8.33271 4.58588 7.68809 4.97614 7.15357C5.36641 6.61905 5.9163 6.22223 6.54658 6.02031C7.17686 5.81838 7.85497 5.82178 8.48319 6.03C9.11141 6.23822 9.65731 6.64052 10.0422 7.17892C8.76727 7.84986 7.77865 8.96005 7.25939 10.3039C6.43778 10.1621 5.59244 10.2758 4.83752 10.6297C4.53527 10.1378 4.37518 9.57186 4.37502 8.99455ZM12.8125 17.1195H6.56252C6.17785 17.1188 5.79741 17.0392 5.44474 16.8856C5.09206 16.7321 4.77464 16.5078 4.5121 16.2266C4.24956 15.9455 4.04748 15.6134 3.91836 15.2511C3.78925 14.8887 3.73583 14.5038 3.76142 14.1199C3.78701 13.7361 3.89107 13.3616 4.06715 13.0196C4.24323 12.6776 4.4876 12.3754 4.78514 12.1316C5.08268 11.8878 5.42707 11.7076 5.79701 11.6022C6.16696 11.4968 6.5546 11.4684 6.93595 11.5188C6.90705 11.7039 6.88674 11.893 6.8758 12.0836C6.86627 12.2494 6.92297 12.4121 7.03344 12.5361C7.14391 12.66 7.2991 12.735 7.46486 12.7445C7.63062 12.7541 7.79338 12.6974 7.91733 12.5869C8.04128 12.4764 8.11627 12.3212 8.1258 12.1555C8.14333 11.8437 8.19254 11.5346 8.27267 11.2328C8.27267 11.2203 8.2797 11.2078 8.28205 11.1953C8.51177 10.3511 8.97293 9.588 9.61345 8.99206C10.254 8.39612 11.0484 7.99113 11.9069 7.82282C12.7654 7.65451 13.6539 7.72958 14.4721 8.03955C15.2902 8.34953 16.0054 8.88206 16.5368 9.57702C17.0683 10.272 17.3949 11.1017 17.4797 11.9724C17.5645 12.8432 17.4042 13.7203 17.0168 14.5048C16.6295 15.2892 16.0305 15.9498 15.2876 16.4118C14.5447 16.8739 13.6874 17.119 12.8125 17.1195Z" fill="#919EAB"/>
</svg>
