<svg width="20" height="21" viewBox="0 0 20 21" fill="none" xmlns="http://www.w3.org/2000/svg">
<path d="M9.375 3.99463V2.11963C9.375 1.95387 9.44085 1.7949 9.55806 1.67769C9.67527 1.56048 9.83424 1.49463 10 1.49463C10.1658 1.49463 10.3247 1.56048 10.4419 1.67769C10.5592 1.7949 10.625 1.95387 10.625 2.11963V3.99463C10.625 4.16039 10.5592 4.31936 10.4419 4.43657C10.3247 4.55378 10.1658 4.61963 10 4.61963C9.83424 4.61963 9.67527 4.55378 9.55806 4.43657C9.44085 4.31936 9.375 4.16039 9.375 3.99463ZM15 10.8696C15 11.8585 14.7068 12.8252 14.1573 13.6475C13.6079 14.4697 12.827 15.1106 11.9134 15.489C10.9998 15.8675 9.99445 15.9665 9.02455 15.7736C8.05464 15.5806 7.16373 15.1044 6.46447 14.4052C5.7652 13.7059 5.289 12.815 5.09607 11.8451C4.90315 10.8752 5.00216 9.86984 5.3806 8.95621C5.75904 8.04258 6.3999 7.26169 7.22215 6.71228C8.04439 6.16287 9.01109 5.86963 10 5.86963C11.3256 5.87108 12.5966 6.39833 13.5339 7.33569C14.4713 8.27306 14.9986 9.54399 15 10.8696ZM13.75 10.8696C13.75 10.1279 13.5301 9.40292 13.118 8.78624C12.706 8.16956 12.1203 7.68891 11.4351 7.40508C10.7498 7.12125 9.99584 7.04699 9.26841 7.19168C8.54098 7.33638 7.8728 7.69353 7.34835 8.21798C6.8239 8.74243 6.46675 9.41061 6.32206 10.138C6.17736 10.8655 6.25162 11.6195 6.53545 12.3047C6.81928 12.9899 7.29993 13.5756 7.91661 13.9876C8.5333 14.3997 9.25832 14.6196 10 14.6196C10.9942 14.6186 11.9475 14.2232 12.6505 13.5201C13.3535 12.8171 13.749 11.8639 13.75 10.8696ZM4.55781 6.31182C4.67509 6.42909 4.83415 6.49498 5 6.49498C5.16585 6.49498 5.32491 6.42909 5.44219 6.31182C5.55946 6.19454 5.62535 6.03548 5.62535 5.86963C5.62535 5.70378 5.55946 5.54472 5.44219 5.42744L4.19219 4.17744C4.07491 4.06017 3.91585 3.99428 3.75 3.99428C3.58415 3.99428 3.42509 4.06017 3.30781 4.17744C3.19054 4.29472 3.12465 4.45378 3.12465 4.61963C3.12465 4.78548 3.19054 4.94454 3.30781 5.06182L4.55781 6.31182ZM4.55781 15.4274L3.30781 16.6774C3.19054 16.7947 3.12465 16.9538 3.12465 17.1196C3.12465 17.2855 3.19054 17.4445 3.30781 17.5618C3.42509 17.6791 3.58415 17.745 3.75 17.745C3.91585 17.745 4.07491 17.6791 4.19219 17.5618L5.44219 16.3118C5.50026 16.2537 5.54632 16.1848 5.57775 16.1089C5.60917 16.0331 5.62535 15.9518 5.62535 15.8696C5.62535 15.7875 5.60917 15.7062 5.57775 15.6303C5.54632 15.5544 5.50026 15.4855 5.44219 15.4274C5.38412 15.3694 5.31518 15.3233 5.23931 15.2919C5.16344 15.2605 5.08212 15.2443 5 15.2443C4.91788 15.2443 4.83656 15.2605 4.76069 15.2919C4.68482 15.3233 4.61588 15.3694 4.55781 15.4274ZM15 6.49463C15.0821 6.49469 15.1634 6.47858 15.2393 6.44721C15.3152 6.41585 15.3841 6.36984 15.4422 6.31182L16.6922 5.06182C16.8095 4.94454 16.8753 4.78548 16.8753 4.61963C16.8753 4.45378 16.8095 4.29472 16.6922 4.17744C16.5749 4.06017 16.4159 3.99428 16.25 3.99428C16.0841 3.99428 15.9251 4.06017 15.8078 4.17744L14.5578 5.42744C14.4703 5.51485 14.4107 5.62626 14.3865 5.74756C14.3624 5.86887 14.3748 5.99461 14.4221 6.10887C14.4695 6.22314 14.5496 6.32079 14.6525 6.38945C14.7554 6.45812 14.8763 6.49473 15 6.49463ZM15.4422 15.4274C15.3249 15.3102 15.1659 15.2443 15 15.2443C14.8341 15.2443 14.6751 15.3102 14.5578 15.4274C14.4405 15.5447 14.3747 15.7038 14.3747 15.8696C14.3747 16.0355 14.4405 16.1945 14.5578 16.3118L15.8078 17.5618C15.8659 17.6199 15.9348 17.6659 16.0107 17.6974C16.0866 17.7288 16.1679 17.745 16.25 17.745C16.3321 17.745 16.4134 17.7288 16.4893 17.6974C16.5652 17.6659 16.6341 17.6199 16.6922 17.5618C16.7503 17.5037 16.7963 17.4348 16.8277 17.3589C16.8592 17.2831 16.8753 17.2018 16.8753 17.1196C16.8753 17.0375 16.8592 16.9562 16.8277 16.8803C16.7963 16.8044 16.7503 16.7355 16.6922 16.6774L15.4422 15.4274ZM3.75 10.8696C3.75 10.7039 3.68415 10.5449 3.56694 10.4277C3.44973 10.3105 3.29076 10.2446 3.125 10.2446H1.25C1.08424 10.2446 0.925268 10.3105 0.808058 10.4277C0.690848 10.5449 0.625 10.7039 0.625 10.8696C0.625 11.0354 0.690848 11.1944 0.808058 11.3116C0.925268 11.4288 1.08424 11.4946 1.25 11.4946H3.125C3.29076 11.4946 3.44973 11.4288 3.56694 11.3116C3.68415 11.1944 3.75 11.0354 3.75 10.8696ZM10 17.1196C9.83424 17.1196 9.67527 17.1855 9.55806 17.3027C9.44085 17.4199 9.375 17.5789 9.375 17.7446V19.6196C9.375 19.7854 9.44085 19.9444 9.55806 20.0616C9.67527 20.1788 9.83424 20.2446 10 20.2446C10.1658 20.2446 10.3247 20.1788 10.4419 20.0616C10.5592 19.9444 10.625 19.7854 10.625 19.6196V17.7446C10.625 17.5789 10.5592 17.4199 10.4419 17.3027C10.3247 17.1855 10.1658 17.1196 10 17.1196ZM18.75 10.2446H16.875C16.7092 10.2446 16.5503 10.3105 16.4331 10.4277C16.3158 10.5449 16.25 10.7039 16.25 10.8696C16.25 11.0354 16.3158 11.1944 16.4331 11.3116C16.5503 11.4288 16.7092 11.4946 16.875 11.4946H18.75C18.9158 11.4946 19.0747 11.4288 19.1919 11.3116C19.3092 11.1944 19.375 11.0354 19.375 10.8696C19.375 10.7039 19.3092 10.5449 19.1919 10.4277C19.0747 10.3105 18.9158 10.2446 18.75 10.2446Z" fill="#C8A37F"/>
</svg>
