<svg width="20" height="21" viewBox="0 0 20 21" fill="none" xmlns="http://www.w3.org/2000/svg">
<path d="M18.75 12.7445H15.5898C15.6129 12.537 15.6246 12.3284 15.625 12.1195C15.625 10.6277 15.0324 9.19696 13.9775 8.14207C12.9226 7.08717 11.4918 6.49454 10 6.49454C8.50816 6.49454 7.07742 7.08717 6.02252 8.14207C4.96763 9.19696 4.375 10.6277 4.375 12.1195C4.37535 12.3284 4.38709 12.537 4.41016 12.7445H1.25C1.08424 12.7445 0.925268 12.8104 0.808058 12.9276C0.690848 13.0448 0.625 13.2038 0.625 13.3695C0.625 13.5353 0.690848 13.6943 0.808058 13.8115C0.925268 13.9287 1.08424 13.9945 1.25 13.9945H18.75C18.9158 13.9945 19.0747 13.9287 19.1919 13.8115C19.3092 13.6943 19.375 13.5353 19.375 13.3695C19.375 13.2038 19.3092 13.0448 19.1919 12.9276C19.0747 12.8104 18.9158 12.7445 18.75 12.7445ZM5.625 12.1195C5.62385 11.5179 5.74681 10.9225 5.98618 10.3705C6.22555 9.81857 6.57619 9.3219 7.01619 8.91158C7.45619 8.50126 7.97609 8.18609 8.54341 7.98579C9.11072 7.78548 9.71325 7.70434 10.3133 7.74743C10.9134 7.79052 11.4982 7.95692 12.0311 8.23623C12.5639 8.51553 13.0335 8.90174 13.4103 9.37072C13.7872 9.8397 14.0633 10.3814 14.2213 10.9619C14.3794 11.5424 14.416 12.1492 14.3289 12.7445H5.67109C5.64084 12.5376 5.62544 12.3287 5.625 12.1195ZM16.875 16.4945C16.875 16.6603 16.8092 16.8193 16.6919 16.9365C16.5747 17.0537 16.4158 17.1195 16.25 17.1195H3.75C3.58424 17.1195 3.42527 17.0537 3.30806 16.9365C3.19085 16.8193 3.125 16.6603 3.125 16.4945C3.125 16.3288 3.19085 16.1698 3.30806 16.0526C3.42527 15.9354 3.58424 15.8695 3.75 15.8695H16.25C16.4158 15.8695 16.5747 15.9354 16.6919 16.0526C16.8092 16.1698 16.875 16.3288 16.875 16.4945ZM5.69062 4.27423C5.61645 4.12587 5.60424 3.95413 5.65669 3.79677C5.70914 3.63942 5.82196 3.50934 5.97031 3.43517C6.11867 3.36099 6.29041 3.34878 6.44777 3.40123C6.60512 3.45369 6.7352 3.5665 6.80938 3.71485L7.43438 4.96485C7.4711 5.03831 7.493 5.11829 7.49883 5.20021C7.50465 5.28213 7.49428 5.3644 7.46831 5.44231C7.44234 5.52022 7.40127 5.59226 7.34746 5.6543C7.29365 5.71635 7.22815 5.76719 7.15469 5.80392C7.08123 5.84065 7.00126 5.86255 6.91933 5.86837C6.83741 5.87419 6.75515 5.86382 6.67723 5.83785C6.59932 5.81188 6.52728 5.77081 6.46524 5.717C6.40319 5.66319 6.35235 5.59769 6.31562 5.52423L5.69062 4.27423ZM1.31563 8.08985C1.35238 8.01643 1.40325 7.95096 1.46532 7.8972C1.52739 7.84344 1.59944 7.80244 1.67736 7.77654C1.75529 7.75064 1.83755 7.74034 1.91945 7.74625C2.00135 7.75215 2.08129 7.77414 2.15469 7.81095L3.40469 8.43595C3.55294 8.51013 3.66565 8.64016 3.71803 8.79744C3.77041 8.95472 3.75816 9.12637 3.68398 9.27462C3.60981 9.42287 3.47977 9.53558 3.32249 9.58796C3.16521 9.64034 2.99356 9.62809 2.84531 9.55392L1.59531 8.92892C1.52182 8.89223 1.45628 8.84141 1.40244 8.77937C1.34859 8.71733 1.30751 8.64529 1.28154 8.56736C1.25556 8.48943 1.2452 8.40715 1.25105 8.32522C1.2569 8.24328 1.27884 8.1633 1.31563 8.08985ZM16.3156 9.27423C16.2416 9.12597 16.2295 8.95438 16.2819 8.79718C16.3344 8.63998 16.4471 8.51005 16.5953 8.43595L17.8453 7.81095C17.9187 7.77422 17.9986 7.75231 18.0805 7.74647C18.1624 7.74062 18.2446 7.75097 18.3225 7.7769C18.4004 7.80284 18.4724 7.84386 18.5344 7.89762C18.5964 7.95138 18.6473 8.01684 18.684 8.09024C18.7207 8.16365 18.7426 8.24357 18.7485 8.32545C18.7543 8.40732 18.744 8.48955 18.718 8.56742C18.6921 8.6453 18.6511 8.71731 18.5973 8.77933C18.5435 8.84136 18.4781 8.89219 18.4047 8.92892L17.1547 9.55392C17.0812 9.5907 17.0013 9.61264 16.9193 9.61849C16.8374 9.62434 16.7551 9.61398 16.6772 9.58801C16.5992 9.56203 16.5272 9.52095 16.4652 9.46711C16.4031 9.41327 16.3523 9.34772 16.3156 9.27423ZM12.5656 4.96485L13.1906 3.71485C13.2648 3.5665 13.3949 3.45369 13.5522 3.40123C13.7096 3.34878 13.8813 3.36099 14.0297 3.43517C14.178 3.50934 14.2909 3.63942 14.3433 3.79677C14.3958 3.95413 14.3836 4.12587 14.3094 4.27423L13.6844 5.52423C13.6102 5.67258 13.4801 5.7854 13.3228 5.83785C13.1654 5.8903 12.9937 5.87809 12.8453 5.80392C12.697 5.72974 12.5841 5.59966 12.5317 5.44231C12.4792 5.28496 12.4914 5.11321 12.5656 4.96485Z" fill="#919EAB"/>
</svg>
