<svg width="20" height="21" viewBox="0 0 20 21" fill="none" xmlns="http://www.w3.org/2000/svg">
<path d="M18.75 8.36963C18.75 8.53539 18.6842 8.69436 18.567 8.81157C18.4498 8.92878 18.2908 8.99463 18.125 8.99463H16.875V10.2446C16.875 10.4104 16.8092 10.5694 16.692 10.6866C16.5748 10.8038 16.4158 10.8696 16.25 10.8696C16.0843 10.8696 15.9253 10.8038 15.8081 10.6866C15.6909 10.5694 15.625 10.4104 15.625 10.2446V8.99463H14.375C14.2093 8.99463 14.0503 8.92878 13.9331 8.81157C13.8159 8.69436 13.75 8.53539 13.75 8.36963C13.75 8.20387 13.8159 8.0449 13.9331 7.92769C14.0503 7.81048 14.2093 7.74463 14.375 7.74463H15.625V6.49463C15.625 6.32887 15.6909 6.1699 15.8081 6.05269C15.9253 5.93548 16.0843 5.86963 16.25 5.86963C16.4158 5.86963 16.5748 5.93548 16.692 6.05269C16.8092 6.1699 16.875 6.32887 16.875 6.49463V7.74463H18.125C18.2908 7.74463 18.4498 7.81048 18.567 7.92769C18.6842 8.0449 18.75 8.20387 18.75 8.36963ZM11.25 5.24463H11.875V5.86963C11.875 6.03539 11.9409 6.19436 12.0581 6.31157C12.1753 6.42878 12.3343 6.49463 12.5 6.49463C12.6658 6.49463 12.8248 6.42878 12.942 6.31157C13.0592 6.19436 13.125 6.03539 13.125 5.86963V5.24463H13.75C13.9158 5.24463 14.0748 5.17878 14.192 5.06157C14.3092 4.94436 14.375 4.78539 14.375 4.61963C14.375 4.45387 14.3092 4.2949 14.192 4.17769C14.0748 4.06048 13.9158 3.99463 13.75 3.99463H13.125V3.36963C13.125 3.20387 13.0592 3.0449 12.942 2.92769C12.8248 2.81048 12.6658 2.74463 12.5 2.74463C12.3343 2.74463 12.1753 2.81048 12.0581 2.92769C11.9409 3.0449 11.875 3.20387 11.875 3.36963V3.99463H11.25C11.0843 3.99463 10.9253 4.06048 10.8081 4.17769C10.6909 4.2949 10.625 4.45387 10.625 4.61963C10.625 4.78539 10.6909 4.94436 10.8081 5.06157C10.9253 5.17878 11.0843 5.24463 11.25 5.24463ZM16.9352 12.8228C17.0079 12.9075 17.0567 13.0101 17.0763 13.12C17.096 13.2299 17.0858 13.3431 17.0469 13.4478C16.6132 14.6305 15.8886 15.6849 14.9399 16.5138C13.9913 17.3426 12.8491 17.9191 11.6189 18.1901C10.3886 18.4612 9.10994 18.4179 7.90082 18.0644C6.69169 17.7109 5.59108 17.0586 4.70056 16.1676C3.81005 15.2765 3.15831 14.1756 2.80551 12.9662C2.4527 11.7569 2.41019 10.4782 2.68191 9.2481C2.95362 8.01801 3.53079 6.87618 4.36017 5.92798C5.18955 4.97978 6.2444 4.25577 7.42738 3.82275C7.53151 3.78462 7.6439 3.77487 7.75303 3.79452C7.86216 3.81416 7.96411 3.86248 8.0484 3.93453C8.13269 4.00657 8.1963 4.09975 8.23269 4.20449C8.26909 4.30924 8.27696 4.42178 8.25551 4.53057C8.03649 5.63914 8.09387 6.78458 8.42259 7.86571C8.75131 8.94684 9.34124 9.93037 10.1403 10.7294C10.9393 11.5284 11.9228 12.1184 13.004 12.4471C14.0851 12.7758 15.2305 12.8332 16.3391 12.6142C16.448 12.5929 16.5607 12.601 16.6654 12.6376C16.7702 12.6743 16.8633 12.7382 16.9352 12.8228ZM15.4204 13.9853C15.2805 13.9923 15.1399 13.9962 15 13.9962C12.8456 13.9939 10.78 13.1369 9.25676 11.6134C7.73347 10.0898 6.8769 8.02409 6.87504 5.86963C6.87504 5.72979 6.87504 5.58916 6.88598 5.44932C6.0544 5.92784 5.34416 6.59139 4.81027 7.38855C4.27638 8.18571 3.93319 9.09509 3.80728 10.0462C3.68137 10.9973 3.77612 11.9647 4.08419 12.8733C4.39227 13.7819 4.90539 14.6074 5.58381 15.2859C6.26223 15.9643 7.08772 16.4774 7.99635 16.7855C8.90497 17.0935 9.87232 17.1883 10.8234 17.0624C11.7746 16.9365 12.684 16.5933 13.4811 16.0594C14.2783 15.5255 14.9418 14.8153 15.4204 13.9837V13.9853Z" fill="#919EAB"/>
</svg>
