<svg width="20" height="21" viewBox="0 0 20 21" fill="none" xmlns="http://www.w3.org/2000/svg">
<path d="M9.375 3.99463V3.36963C9.375 3.20387 9.44085 3.0449 9.55806 2.92769C9.67527 2.81048 9.83424 2.74463 10 2.74463C10.1658 2.74463 10.3247 2.81048 10.4419 2.92769C10.5592 3.0449 10.625 3.20387 10.625 3.36963V3.99463C10.625 4.16039 10.5592 4.31936 10.4419 4.43657C10.3247 4.55378 10.1658 4.61963 10 4.61963C9.83424 4.61963 9.67527 4.55378 9.55806 4.43657C9.44085 4.31936 9.375 4.16039 9.375 3.99463ZM15 10.8696C15 11.8585 14.7068 12.8252 14.1573 13.6475C13.6079 14.4697 12.827 15.1106 11.9134 15.489C10.9998 15.8675 9.99445 15.9665 9.02455 15.7736C8.05464 15.5806 7.16373 15.1044 6.46447 14.4052C5.7652 13.7059 5.289 12.815 5.09607 11.8451C4.90315 10.8752 5.00216 9.86984 5.3806 8.95621C5.75904 8.04258 6.3999 7.26169 7.22215 6.71228C8.04439 6.16287 9.01109 5.86963 10 5.86963C11.3256 5.87108 12.5966 6.39833 13.5339 7.33569C14.4713 8.27306 14.9986 9.54399 15 10.8696ZM13.75 10.8696C13.75 10.1279 13.5301 9.40292 13.118 8.78624C12.706 8.16956 12.1203 7.68891 11.4351 7.40508C10.7498 7.12125 9.99584 7.04699 9.26841 7.19168C8.54098 7.33638 7.8728 7.69353 7.34835 8.21798C6.8239 8.74243 6.46675 9.41061 6.32206 10.138C6.17736 10.8655 6.25162 11.6195 6.53545 12.3047C6.81928 12.9899 7.29993 13.5756 7.91661 13.9876C8.5333 14.3997 9.25832 14.6196 10 14.6196C10.9942 14.6186 11.9475 14.2232 12.6505 13.5201C13.3535 12.8171 13.749 11.8639 13.75 10.8696ZM4.55781 6.31182C4.67509 6.42909 4.83415 6.49498 5 6.49498C5.16585 6.49498 5.32491 6.42909 5.44219 6.31182C5.55946 6.19454 5.62535 6.03548 5.62535 5.86963C5.62535 5.70378 5.55946 5.54472 5.44219 5.42744L4.81719 4.80244C4.69991 4.68517 4.54085 4.61928 4.375 4.61928C4.20915 4.61928 4.05009 4.68517 3.93281 4.80244C3.81554 4.91972 3.74965 5.07878 3.74965 5.24463C3.74965 5.41048 3.81554 5.56954 3.93281 5.68682L4.55781 6.31182ZM4.55781 15.4274L3.93281 16.0524C3.81554 16.1697 3.74965 16.3288 3.74965 16.4946C3.74965 16.6605 3.81554 16.8195 3.93281 16.9368C4.05009 17.0541 4.20915 17.12 4.375 17.12C4.54085 17.12 4.69991 17.0541 4.81719 16.9368L5.44219 16.3118C5.50026 16.2537 5.54632 16.1848 5.57775 16.1089C5.60917 16.0331 5.62535 15.9518 5.62535 15.8696C5.62535 15.7875 5.60917 15.7062 5.57775 15.6303C5.54632 15.5544 5.50026 15.4855 5.44219 15.4274C5.38412 15.3694 5.31518 15.3233 5.23931 15.2919C5.16344 15.2605 5.08212 15.2443 5 15.2443C4.91788 15.2443 4.83656 15.2605 4.76069 15.2919C4.68482 15.3233 4.61588 15.3694 4.55781 15.4274ZM15 6.49463C15.0821 6.49469 15.1634 6.47858 15.2393 6.44721C15.3152 6.41585 15.3841 6.36984 15.4422 6.31182L16.0672 5.68682C16.1845 5.56954 16.2503 5.41048 16.2503 5.24463C16.2503 5.07878 16.1845 4.91972 16.0672 4.80244C15.9499 4.68517 15.7909 4.61928 15.625 4.61928C15.4591 4.61928 15.3001 4.68517 15.1828 4.80244L14.5578 5.42744C14.4703 5.51485 14.4107 5.62626 14.3865 5.74756C14.3624 5.86887 14.3748 5.99461 14.4221 6.10887C14.4695 6.22314 14.5496 6.32078 14.6525 6.38945C14.7554 6.45812 14.8763 6.49473 15 6.49463ZM15.4422 15.4274C15.3249 15.3102 15.1659 15.2443 15 15.2443C14.8341 15.2443 14.6751 15.3102 14.5578 15.4274C14.4405 15.5447 14.3747 15.7038 14.3747 15.8696C14.3747 16.0355 14.4405 16.1945 14.5578 16.3118L15.1828 16.9368C15.2409 16.9949 15.3098 17.0409 15.3857 17.0724C15.4616 17.1038 15.5429 17.12 15.625 17.12C15.7071 17.12 15.7884 17.1038 15.8643 17.0724C15.9402 17.0409 16.0091 16.9949 16.0672 16.9368C16.1253 16.8787 16.1713 16.8098 16.2027 16.7339C16.2342 16.6581 16.2503 16.5768 16.2503 16.4946C16.2503 16.4125 16.2342 16.3312 16.2027 16.2553C16.1713 16.1794 16.1253 16.1105 16.0672 16.0524L15.4422 15.4274ZM3.125 10.2446H2.5C2.33424 10.2446 2.17527 10.3105 2.05806 10.4277C1.94085 10.5449 1.875 10.7039 1.875 10.8696C1.875 11.0354 1.94085 11.1944 2.05806 11.3116C2.17527 11.4288 2.33424 11.4946 2.5 11.4946H3.125C3.29076 11.4946 3.44973 11.4288 3.56694 11.3116C3.68415 11.1944 3.75 11.0354 3.75 10.8696C3.75 10.7039 3.68415 10.5449 3.56694 10.4277C3.44973 10.3105 3.29076 10.2446 3.125 10.2446ZM10 17.1196C9.83424 17.1196 9.67527 17.1855 9.55806 17.3027C9.44085 17.4199 9.375 17.5789 9.375 17.7446V18.3696C9.375 18.5354 9.44085 18.6944 9.55806 18.8116C9.67527 18.9288 9.83424 18.9946 10 18.9946C10.1658 18.9946 10.3247 18.9288 10.4419 18.8116C10.5592 18.6944 10.625 18.5354 10.625 18.3696V17.7446C10.625 17.5789 10.5592 17.4199 10.4419 17.3027C10.3247 17.1855 10.1658 17.1196 10 17.1196ZM17.5 10.2446H16.875C16.7092 10.2446 16.5503 10.3105 16.4331 10.4277C16.3158 10.5449 16.25 10.7039 16.25 10.8696C16.25 11.0354 16.3158 11.1944 16.4331 11.3116C16.5503 11.4288 16.7092 11.4946 16.875 11.4946H17.5C17.6658 11.4946 17.8247 11.4288 17.9419 11.3116C18.0592 11.1944 18.125 11.0354 18.125 10.8696C18.125 10.7039 18.0592 10.5449 17.9419 10.4277C17.8247 10.3105 17.6658 10.2446 17.5 10.2446Z" fill="#919EAB"/>
</svg>
